<svg width="2797" height="800" viewBox="0 0 2797 800" fill="none" xmlns="http://www.w3.org/2000/svg">
<path d="M334.47 291.926C330.367 294.84 326.343 297.867 322.396 301.004C320.347 302.631 318.517 304.286 316.905 305.967C314.354 308.635 311.43 311.549 308.133 314.707C305.854 316.891 303.49 320.939 300.841 324.372C299.028 326.728 297.904 328.036 297.958 330.82" stroke="#E55B0E" stroke-width="0.902425"/>
<path d="M279.301 461.017C272.97 463.264 281.092 468.449 281.232 471.346C281.444 475.551 284.535 478.836 286.989 482.351C287.558 483.167 288.528 484.801 288.758 485.658C289.967 490.233 291.88 495.45 294.529 498.716C296.803 501.518 298.319 503.395 299.077 504.352C300.064 505.597 300.59 507.032 300.656 508.652" stroke="#E55B0E" stroke-width="0.902425"/>
<path d="M531.962 417.155C534.276 415.417 535.585 413.142 535.892 410.333C536.311 406.449 536.185 402.676 535.504 399.012C535.228 397.502 534.94 395.958 534.646 394.382C534.191 391.955 534.728 389.166 534.276 386.919C533.703 384.086 532.435 381.487 530.725 378.897" stroke="#E55B0E" stroke-width="0.902425"/>
<path d="M602.644 550.989C601.985 552.149 601.354 553.34 600.744 554.22C594.87 562.68 589.008 570.951 581.685 579.325C567.905 595.086 552.925 608.866 536.74 620.656C531.398 624.55 524.972 628.801 517.464 633.408C500.941 643.547 482.888 651.786 464.839 657.818C459.267 659.682 454.597 661.175 450.824 662.299C446.517 663.58 441.764 664.789 436.566 665.922C430.941 667.149 427.321 667.916 425.705 668.219C424.247 668.494 420.399 669.108 414.163 670.06C412.936 670.245 411.984 670.362 411.307 670.407C410.039 670.493 408.925 670.836 407.517 670.971C403.474 671.359 400.699 671.625 399.192 671.774C395.874 672.095 393.095 672.257 390.854 672.257C387.357 672.257 382.145 672.564 377.931 672.501C370.649 672.401 362.179 672.293 353.972 671.486C339.816 670.091 325.711 667.619 311.657 664.068C308.559 663.287 303.68 661.848 297.02 659.759C286.094 656.334 275.501 652.232 265.241 647.458C247.671 639.287 231.299 629.64 216.126 618.522C195.06 603.091 176.383 585.182 160.095 564.796C157.517 561.57 154.763 557.893 151.833 553.755C145.552 544.884 140.715 537.254 135.517 528.009C126.995 512.853 120.28 497.809 115.37 482.883C115.031 481.85 114.81 481.182 114.707 480.884C112.256 473.76 110.338 467.379 108.954 461.753C107.913 457.525 107.285 454.953 107.068 454.037C105.321 446.634 103.923 438.589 102.876 429.902C102.401 425.94 102.138 423.796 102.087 423.467C101.948 422.559 101.902 421.801 101.947 421.193C102.028 420.115 101.631 419.181 101.572 418.184C100.85 405.484 100.513 398.067 100.562 395.934C100.709 389.419 100.944 384.081 101.266 379.921C101.512 376.732 101.625 375.028 101.604 374.809C101.583 374.61 101.608 374.409 101.676 374.222C102.123 372.968 101.888 371.28 102.06 369.818C102.822 363.384 103.224 358.57 104.203 352.785C105.466 345.331 106.477 339.996 107.235 336.781C109.157 328.617 110.541 322.972 111.386 319.847C111.645 318.896 112.606 315.655 114.27 310.123C115.398 306.375 116.458 303.162 117.451 300.485C120.546 292.143 122.745 286.499 124.047 283.551C126.118 278.876 129.922 270.479 133.157 264.293C136.944 257.05 140.457 250.766 143.693 245.442C144.951 243.375 147.405 239.57 151.057 234.026C159.819 220.724 169.927 208.253 180.598 196.616C187.155 189.463 193.858 182.855 200.704 176.794C209.905 168.642 218.841 161.484 227.51 155.321C233.256 151.236 240.271 146.7 248.555 141.712C256.006 137.227 263.347 133.244 270.579 129.764C283.619 123.492 297.123 118.169 311.093 113.796C316.165 112.207 320.213 111.028 323.24 110.258C326.774 109.362 330.874 108.366 335.54 107.271C341.339 105.912 348.05 104.666 355.673 103.535C357.748 103.225 358.852 103.069 358.985 103.066C360.785 103.012 362.333 102.511 364.156 102.385C364.928 102.33 367.09 102.082 370.639 101.64C372.745 101.375 374.651 101.195 376.356 101.099C379.348 100.923 383.418 100.453 387.479 100.408C389.016 100.39 390.813 100.377 392.871 100.368C393.059 100.368 393.24 100.441 393.375 100.573C393.51 100.704 393.588 100.883 393.593 101.072V101.117C393.598 101.308 393.534 101.494 393.413 101.643C393.292 101.791 393.122 101.891 392.934 101.924C390.475 102.367 387.903 102.348 385.363 102.592C371.628 103.907 358.237 106.154 345.191 109.333C332.972 112.311 320.739 116.282 308.489 121.245C285.345 130.627 263.887 142.821 244.115 157.825C238.336 162.205 232.272 167.146 225.922 172.647C223.931 174.374 222.111 176.036 220.462 177.633C218.13 179.894 215.594 182.109 213.342 184.451C209.065 188.897 205.117 193.11 201.498 197.09C198.066 200.862 194.352 205.335 190.357 210.509C184.862 217.629 181.386 222.288 179.93 224.487C174.103 233.28 169.511 240.681 166.154 246.691C161.958 254.212 158.038 261.988 154.396 270.019C147.61 284.995 142.488 299.98 138.193 315.971C134.785 328.659 132.179 342.123 130.378 356.363C130.086 358.661 129.922 360.239 129.886 361.096C129.796 363.316 129.299 365.229 129.263 367.395C129.187 371.831 128.469 377.164 128.496 381.496C128.511 383.222 128.454 385.781 128.325 389.171C128.141 393.951 128.256 399.741 128.668 406.543C129.597 421.851 131.832 436.79 135.373 451.361C137.087 458.423 139.491 466.427 142.583 475.375C146.972 488.077 152.471 500.584 159.079 512.907C163.017 520.248 167.719 527.986 173.184 536.131C178.575 544.158 184.003 551.404 189.469 557.87C206.118 577.557 224.235 594.215 243.817 607.846C259.035 618.436 275.245 627.465 292.449 634.924C304.505 640.153 317.169 644.526 330.441 648.041C343.015 651.375 354.736 653.631 365.604 654.8C366.967 654.949 368.149 655.111 369.151 655.292C370.119 655.468 371.312 655.553 372.729 655.553C373.016 655.553 373.304 655.585 373.586 655.643C375.4 656.022 376.459 656.212 376.762 656.207C378.862 656.167 380.485 656.221 381.631 656.365C384.207 656.686 385.484 656.578 387.637 656.853C387.989 656.898 388.793 656.92 390.051 656.92C399.319 656.938 404.593 656.929 405.875 656.893C406.482 656.875 408.004 656.726 410.441 656.451C413.658 656.09 416.835 656.411 419.871 655.589C419.931 655.576 419.993 655.567 420.056 655.562L423.81 655.431C424.077 655.422 424.341 655.377 424.596 655.296C426.125 654.804 427.555 654.863 428.923 654.678C439.15 653.311 447.934 651.704 455.273 649.854C464.65 647.495 474.978 644.21 486.258 640.009C494.863 636.801 504.997 632.086 516.661 625.859C517.703 625.304 521.525 623.043 528.135 619.077C533.085 616.104 536.83 613.717 539.379 611.916C550.294 604.205 559.391 596.941 566.669 590.127C573.848 583.409 578.847 578.518 581.663 575.449C586.008 570.721 590.398 565.717 594.833 560.433C597.726 556.99 600.271 553.791 602.477 550.836C602.491 550.818 602.509 550.804 602.536 550.8C602.558 550.795 602.581 550.8 602.599 550.813C602.626 550.831 602.648 550.858 602.658 550.89C602.667 550.926 602.662 550.958 602.644 550.989Z" fill="#C64916"/>
<path d="M156.828 335.084C157.652 328.8 159.018 322.068 160.925 314.888C171.867 273.697 192.582 235.939 220.589 204.684C228.404 195.96 237.893 186.987 249.056 177.764C250.157 176.853 253.452 174.354 258.942 170.27C263.187 167.111 266.558 164.715 269.058 163.082C282.742 154.139 296.164 146.865 309.324 141.261C318.794 137.227 329.082 133.643 340.187 130.509C345.295 129.071 350.514 127.824 355.844 126.768C363.349 125.282 368.633 124.321 371.695 123.885C376.34 123.226 381.267 122.677 386.477 122.238C390.842 121.871 394.936 121.59 398.759 121.394C402.667 121.196 408.86 121.158 417.34 121.282C419.753 121.318 422.1 121.43 424.384 121.62C427.647 121.891 429.995 122.031 431.427 122.04C433.232 122.053 435.691 122.518 437.563 122.635C440.975 122.852 443.766 123.15 445.938 123.529C447.707 123.835 449.976 123.813 451.718 124.377C451.957 124.455 452.205 124.503 452.458 124.521C454.078 124.625 455.594 125.067 457.227 125.333C465.11 126.615 473.354 128.438 481.949 130.802C504.654 137.042 526.236 146.044 546.937 157.374C556.463 162.59 565.848 168.731 574.827 174.854C576.6 176.063 580.413 178.906 586.265 183.382C590.886 186.914 594.608 189.92 597.437 192.402C608.605 202.205 618.414 211.853 626.856 221.347C635.1 230.621 643.177 241.069 651.077 252.693C665.733 274.255 677.324 297.677 685.848 322.96C687.765 328.654 689.241 333.499 690.265 337.494C692.918 347.832 694.759 356.32 695.793 362.956C696.907 370.148 697.737 376.907 698.274 383.233C698.549 386.449 698.716 388.428 698.78 389.171C699.492 397.753 699.795 407.007 699.285 416.167C698.983 421.639 698.766 424.857 698.635 425.823C698.459 427.145 698.531 428.566 698.369 429.636C698.265 430.322 698.184 431.004 698.13 431.684C697.606 438.272 696.754 445.01 695.571 451.899C694.701 456.939 693.536 462.71 692.075 469.207C690.825 474.762 689.295 480.442 687.477 486.254C683.93 497.611 680.248 507.799 676.431 516.828C672.275 526.651 667.186 536.921 661.167 547.641C658.96 551.571 656.126 555.939 652.945 561.074C651.244 563.822 650.112 565.595 649.557 566.385C641.494 577.832 634.545 586.96 628.711 593.76C612.445 612.715 594.256 629.424 574.15 643.876C562.77 652.052 550.254 659.682 536.6 666.771C533.203 668.535 530.08 670.051 527.233 671.323C522.288 673.539 519.68 674.915 514.585 677.054C496.808 684.521 478.461 690.184 459.547 694.042C450.553 695.878 441.719 697.187 433.047 697.976C431.191 698.143 429.269 698.355 427.28 698.613C426.787 698.676 426.011 698.743 424.952 698.811C421.857 699.014 418.834 699.461 415.824 699.474C408.866 699.501 401.9 700.065 395.077 699.587C391.806 699.357 387.844 699.682 384.537 699.204C382.236 698.865 377.715 698.707 374.2 698.225C373.77 698.166 372.396 698.013 370.08 697.764C329.519 693.428 291.681 680.866 256.564 660.07C255.653 659.533 251.575 657.069 244.332 652.688C244.317 652.679 244.304 652.666 244.293 652.652C244.283 652.638 244.276 652.625 244.272 652.607C244.267 652.589 244.266 652.571 244.269 652.557C244.272 652.539 244.278 652.521 244.287 652.508L244.341 652.408C244.343 652.404 244.347 652.399 244.352 652.399C244.357 652.399 244.362 652.399 244.368 652.399C245.601 652.972 246.246 653.275 246.303 653.306C261.973 662.186 277.935 669.568 294.191 675.456C309.739 681.083 325.914 685.365 342.714 688.302C350.216 689.615 357.362 690.54 364.151 691.082C366.263 691.249 367.468 691.348 367.765 691.375C370.698 691.664 373.121 691.871 375.472 691.772C376.128 691.745 377.497 691.862 379.578 692.129C381.034 692.314 383.029 692.413 385.561 692.422C394.468 692.463 400.26 692.422 402.937 692.3C403.335 692.282 404.157 692.142 405.406 691.88C405.712 691.817 406.024 691.781 406.34 691.777C408.809 691.741 410.942 691.691 412.738 691.628C414.624 691.565 416.302 691.113 418.035 691.028C421.091 690.87 423.922 690.558 426.527 690.094C428.219 689.791 430.046 689.972 431.544 689.34C431.747 689.254 431.963 689.209 432.181 689.196L434.622 689.065C434.652 689.06 434.682 689.056 434.712 689.047C435.663 688.763 436.56 688.569 437.406 688.46C439.544 688.185 442.513 687.49 443.673 687.319C444.575 687.179 445.324 687.012 445.92 686.809C446.822 686.502 447.847 686.556 448.97 686.29C454.913 684.887 458.45 684.029 459.583 683.718C467.998 681.385 474.888 679.364 480.253 677.645C488.627 674.965 496.866 671.314 507.745 666.64C511.535 665.011 515.79 662.922 520.505 660.368C528.181 656.212 533.045 653.523 535.093 652.3C539.465 649.692 544.745 646.249 550.94 641.967C568.302 629.961 584.172 616.126 598.547 600.465C604.787 593.665 610.983 585.972 616.862 578.283C621.401 572.345 625.439 566.534 628.977 560.848C631.192 557.297 633.525 553.376 635.984 549.094C638.777 544.221 640.952 540.21 642.504 537.065C652.968 515.853 660.521 494.606 665.173 473.318C667.668 461.906 669.726 448.382 671.35 432.74C671.49 431.417 671.544 430.209 671.517 429.117C671.472 427.326 671.865 425.913 671.869 424.266C671.887 419.316 672.284 414.556 672.077 409.963C672.009 408.474 671.932 405.643 671.842 401.471C671.811 400.09 671.481 398.47 671.499 397.297C671.517 395.661 671.445 393.933 671.287 392.113C669.906 376.465 667.15 361.209 663.012 346.346C662.412 344.199 661.324 340.626 659.741 335.63C658.355 331.266 657.146 327.723 656.113 325.004C650.554 310.406 644.589 297.47 638.218 286.195C632.032 275.246 625.024 264.542 617.205 254.082C599.395 230.258 577.836 209.755 553.85 192.573C550.173 189.934 544.785 186.166 540.476 183.418C517.536 168.772 492.724 157.559 466.563 150.335C459.145 148.287 452.232 146.641 445.821 145.399C442.274 144.713 436.666 143.829 428.995 142.746C428.33 142.652 427.724 142.598 427.177 142.583C426.283 142.565 425.665 142.209 424.767 142.258C423.877 142.304 422.51 142.179 420.666 141.884C419.664 141.725 415.872 141.445 409.291 141.045C408.501 141 407.711 140.824 406.886 140.81C399.435 140.678 393.027 140.661 387.664 140.76C383.914 140.828 379.52 141.374 376.289 141.451C373.834 141.505 370.888 142.119 368.298 142.218C367.681 142.242 366.628 142.364 365.139 142.583C365.1 142.589 364.055 142.731 362.003 143.007C353.614 144.148 345.073 145.817 336.379 148.016C323.18 151.352 310.529 155.771 298.428 161.272C290.82 164.729 282.261 168.984 274.897 173.388C263.111 180.43 252.441 187.843 242.888 195.628C236.526 200.811 229.703 207.076 222.421 214.425C219.626 217.247 216.958 220.129 214.416 223.071C210.442 227.67 207.896 230.66 206.777 232.041C202.292 237.559 197.099 245.018 191.183 254.146C188.256 258.661 185.904 262.508 184.126 265.688C177.597 277.37 171.777 289.277 167.17 302.051C164.49 309.484 162.852 314.208 162.256 316.223C160.68 321.533 159.221 326.917 157.879 332.377C157.654 333.297 157.342 334.212 156.945 335.12C156.938 335.132 156.927 335.142 156.914 335.147C156.901 335.152 156.886 335.152 156.873 335.148C156.859 335.144 156.847 335.136 156.839 335.124C156.831 335.112 156.827 335.098 156.828 335.084Z" fill="#C64916"/>
<path d="M334.471 291.926C330.368 294.84 326.343 297.867 322.396 301.004C320.348 302.631 318.517 304.286 316.905 305.967C314.354 308.635 311.43 311.549 308.133 314.707C305.855 316.891 303.49 320.939 300.842 324.372C299.028 326.728 297.904 328.036 297.958 330.82C292.989 332.24 288.961 333.688 285.875 335.165C275.542 340.102 266.067 348.584 259.872 358.109C256.391 363.458 253.729 368.768 251.885 374.042C250.907 376.83 249.93 380.393 248.952 384.731C248.128 388.38 247.644 392.041 247.499 395.713C247.304 400.773 247.367 404.784 247.689 407.747C248.685 416.892 251.126 425.648 255.012 434.017C256.542 437.306 258.536 440.343 260.584 443.226C265.632 450.337 271.871 456.266 279.301 461.017C272.97 463.265 281.092 468.449 281.232 471.346C281.444 475.551 284.535 478.836 286.989 482.351C287.558 483.168 288.528 484.801 288.758 485.658C289.967 490.233 291.881 495.45 294.529 498.716C296.803 501.518 298.319 503.395 299.077 504.352C300.064 505.597 300.59 507.032 300.657 508.652C283.941 506.536 268.38 500.95 253.974 491.885C240.018 483.109 228.093 471.061 219.745 456.862C213.603 446.415 209.316 435.1 206.886 422.917C206.41 420.541 206.146 419.19 206.091 418.865C204.606 409.781 204.232 400.212 204.972 390.159C205.776 379.33 208.69 368 212.598 357.785C213.185 356.25 214.267 353.838 215.847 350.547C219.736 342.439 225.011 334.633 230.466 327.923C234.313 323.195 238.806 318.813 243.944 314.779C253.482 307.295 263.216 301.696 273.146 297.981C278.618 295.935 285.863 293.982 294.881 292.12C297.033 291.673 299.289 291.614 301.18 291.082C301.613 290.956 302.065 290.908 302.516 290.937C302.97 290.964 304.293 290.901 306.486 290.748C312.051 290.36 318.097 290.375 324.625 290.793C326.985 290.946 328.754 290.82 330.753 291.362C331.831 291.655 333.234 291.628 334.471 291.926Z" fill="#DC5611"/>
<path d="M297.958 330.82C297.904 328.036 299.028 326.728 300.841 324.372C303.49 320.939 305.854 316.891 308.133 314.707C311.43 311.549 314.354 308.635 316.905 305.967C318.517 304.286 320.347 302.631 322.396 301.004C326.343 297.867 330.367 294.84 334.47 291.926C338.694 292.738 342.526 293.604 345.967 294.525C365.906 299.871 383.892 311.075 397.784 326.579C401.084 330.257 403.721 333.56 405.694 336.487C410.166 343.111 414.362 349.915 416.844 356.544C418.185 360.12 419.259 363.11 420.065 365.514C420.309 366.236 420.734 366.952 421.342 367.662C421.363 367.685 421.377 367.713 421.383 367.744C421.389 367.774 421.387 367.806 421.376 367.835C421.365 367.864 421.347 367.89 421.322 367.909C421.299 367.929 421.269 367.941 421.239 367.946C419.539 368.199 417.618 368.522 415.477 368.916C406.115 370.634 397.792 374.407 390.506 380.237C387.625 382.544 384.85 385.131 382.182 387.998C382.143 388.039 382.094 388.069 382.04 388.086C381.987 388.102 381.929 388.104 381.874 388.092C381.819 388.078 381.769 388.051 381.728 388.013C381.687 387.974 381.656 387.926 381.64 387.871C381.195 386.391 380.706 384.407 380.174 381.92C377.083 367.45 369.2 353.336 357.712 343.82C346.616 334.633 333.905 329.63 319.58 328.812C317.911 328.716 314.975 328.703 310.773 328.772C307.491 328.829 303.219 329.512 297.958 330.82Z" fill="#EE600A"/>
<path d="M421.762 367.562L422.317 366.403C422.457 366.11 422.543 365.794 422.57 365.469C422.747 363.477 422.833 361.754 422.827 360.298C422.746 335.8 422.702 316.81 422.696 303.328C422.696 301.003 422.743 298.289 422.836 295.188C422.84 295.037 422.905 294.893 423.014 294.788C423.123 294.682 423.27 294.624 423.423 294.624H464.528C464.636 294.624 464.74 294.667 464.817 294.743C464.894 294.819 464.939 294.922 464.939 295.03V367.328C464.939 367.405 464.925 367.481 464.893 367.552C464.866 367.623 464.821 367.688 464.767 367.742C464.713 367.797 464.65 367.84 464.578 367.87C464.505 367.899 464.429 367.914 464.352 367.914H421.983C421.942 367.915 421.9 367.904 421.864 367.884C421.827 367.865 421.796 367.836 421.774 367.8C421.752 367.765 421.739 367.724 421.737 367.683C421.735 367.641 421.744 367.6 421.762 367.562Z" fill="#EE600A"/>
<path d="M531.962 417.155C534.276 415.417 535.585 413.143 535.892 410.333C536.311 406.449 536.185 402.676 535.504 399.012C535.228 397.502 534.94 395.959 534.646 394.382C534.191 391.955 534.728 389.166 534.276 386.919C533.703 384.086 532.435 381.487 530.725 378.897C537.787 378.885 544.821 378.88 551.829 378.883C553.277 378.883 553.48 378.477 553.48 377.056C553.462 342.616 553.462 315.365 553.48 295.301C553.48 295.173 553.53 295.05 553.62 294.959C553.71 294.869 553.836 294.818 553.963 294.818H594.531C594.712 294.818 594.883 294.889 595.01 295.016C595.136 295.143 595.208 295.315 595.208 295.495V505.471C595.208 505.674 595.127 505.868 594.987 506.012C594.843 506.152 594.649 506.234 594.446 506.234H553.945C553.805 506.234 553.67 506.179 553.57 506.076C553.466 505.976 553.412 505.841 553.412 505.701V417.746C553.412 417.583 553.349 417.427 553.232 417.312C553.119 417.197 552.961 417.133 552.799 417.133L531.962 417.155Z" fill="#EE600A"/>
<path d="M530.725 378.897C532.435 381.487 533.703 384.086 534.276 386.919C534.728 389.166 534.191 391.955 534.646 394.382C534.94 395.959 535.228 397.502 535.504 399.012C536.185 402.676 536.311 406.449 535.892 410.333C535.585 413.143 534.276 415.417 531.962 417.155L465.615 417.327C465.539 417.327 465.462 417.342 465.39 417.372C465.318 417.402 465.254 417.445 465.196 417.5C465.142 417.554 465.101 417.62 465.069 417.692C465.038 417.763 465.024 417.84 465.024 417.918V505.769C465.024 505.882 464.979 505.99 464.898 506.071C464.817 506.152 464.708 506.197 464.596 506.197H423.305C423.173 506.197 423.047 506.148 422.954 506.053C422.861 505.963 422.809 505.836 422.809 505.706C422.769 482.076 422.753 457.494 422.759 431.959C422.759 431.288 422.677 430.41 422.511 429.324C422.508 429.304 422.499 429.286 422.485 429.272C422.472 429.257 422.454 429.247 422.435 429.242C422.415 429.238 422.395 429.24 422.376 429.247C422.358 429.254 422.342 429.267 422.33 429.284C421.979 429.819 421.748 430.243 421.64 430.556C421.207 431.798 420.252 434.528 418.775 438.746C414.867 449.904 409.187 459.357 401.516 469.212C395.545 476.882 388.041 483.813 379.005 490.008C372.757 494.29 366.494 497.751 360.217 500.39C351.616 504.009 342.598 506.581 333.162 508.106C331.525 508.372 329.678 508.593 327.621 508.774C325.28 508.981 324.043 509.094 323.907 509.108C319.833 509.541 316.133 509.342 309.225 509.356C307.276 509.36 305.602 508.923 303.738 508.95C303.514 508.954 303.292 508.918 303.079 508.851C302.267 508.593 301.46 508.53 300.656 508.652C300.59 507.032 300.064 505.597 299.077 504.352C298.319 503.395 296.803 501.518 294.529 498.716C291.88 495.45 289.967 490.234 288.758 485.658C288.528 484.801 287.558 483.168 286.989 482.351C284.535 478.836 281.444 475.551 281.232 471.346C281.092 468.449 272.97 463.265 279.301 461.018C286.998 465.855 295.337 469.063 304.316 470.642C305.513 470.854 306.552 470.962 307.434 470.967C308.878 470.98 310.2 471.269 311.607 471.323C314.892 471.445 317.013 471.459 317.969 471.355C320.794 471.053 324.025 471.016 326.836 470.43C332.254 469.297 337.642 467.542 343.003 465.155C354.5 460.043 364.214 451.136 370.761 440.478C373.306 436.336 375.676 431.57 377.872 426.179C379.47 422.249 380.449 417.512 381.726 413.198C382.349 411.092 383.319 408.563 384.636 405.609C389.816 393.97 398.389 386.044 410.355 381.83C412.544 381.058 415.007 380.566 417.399 380.011C418.487 379.755 419.459 379.62 420.314 379.605C421.514 379.583 422.795 379.249 424.217 379.177C427.348 379.026 429.842 378.948 431.698 378.942C457.877 378.876 490.888 378.861 530.725 378.897Z" fill="#EE600A"/>
<path opacity="0.55" d="M923 120H920V680H923V120Z" fill="#8B7355"/>
<path d="M1223.9 491.52C1206.39 491.52 1190.92 487.577 1177.49 479.69C1164.06 471.803 1153.53 460.797 1145.9 446.67C1138.27 432.543 1134.46 416.12 1134.46 397.4C1134.46 378.853 1138.27 362.517 1145.9 348.39C1153.53 334.263 1164.06 323.213 1177.49 315.24C1190.92 307.267 1206.39 303.28 1223.9 303.28C1241.75 303.28 1257.44 307.267 1270.96 315.24C1284.48 323.213 1294.97 334.263 1302.42 348.39C1309.87 362.517 1313.6 378.853 1313.6 397.4C1313.6 416.12 1309.87 432.543 1302.42 446.67C1294.97 460.797 1284.48 471.803 1270.96 479.69C1257.44 487.577 1241.75 491.52 1223.9 491.52ZM1224.16 463.44C1235.77 463.44 1245.91 460.797 1254.58 455.51C1263.25 450.223 1269.92 442.64 1274.6 432.76C1279.28 422.88 1281.62 411.093 1281.62 397.4C1281.62 383.707 1279.28 371.92 1274.6 362.04C1269.92 352.16 1263.25 344.577 1254.58 339.29C1245.91 334.003 1235.77 331.36 1224.16 331.36C1212.55 331.36 1202.41 334.003 1193.74 339.29C1185.07 344.577 1178.36 352.16 1173.59 362.04C1168.82 371.92 1166.44 383.707 1166.44 397.4C1166.44 411.093 1168.82 422.88 1173.59 432.76C1178.36 442.64 1185.07 450.223 1193.74 455.51C1202.41 460.797 1212.55 463.44 1224.16 463.44ZM1388.74 491.52C1377.13 491.52 1367.03 489.657 1358.45 485.93C1349.87 482.203 1343.11 477.003 1338.17 470.33C1333.23 463.657 1330.33 455.987 1329.46 447.32H1360.66C1361.53 450.96 1363.09 454.297 1365.34 457.33C1367.59 460.363 1370.67 462.747 1374.57 464.48C1378.47 466.213 1383.11 467.08 1388.48 467.08C1393.68 467.08 1397.93 466.343 1401.22 464.87C1404.51 463.397 1406.94 461.447 1408.5 459.02C1410.06 456.593 1410.84 453.993 1410.84 451.22C1410.84 447.06 1409.71 443.853 1407.46 441.6C1405.21 439.347 1401.96 437.57 1397.71 436.27C1393.46 434.97 1388.39 433.713 1382.5 432.5C1376.26 431.287 1370.24 429.77 1364.43 427.95C1358.62 426.13 1353.42 423.833 1348.83 421.06C1344.24 418.287 1340.6 414.733 1337.91 410.4C1335.22 406.067 1333.88 400.78 1333.88 394.54C1333.88 386.913 1335.92 380.067 1339.99 374C1344.06 367.933 1349.96 363.123 1357.67 359.57C1365.38 356.017 1374.61 354.24 1385.36 354.24C1400.61 354.24 1412.79 357.75 1421.89 364.77C1430.99 371.79 1436.32 381.627 1437.88 394.28H1408.24C1407.37 389.427 1404.95 385.657 1400.96 382.97C1396.97 380.283 1391.69 378.94 1385.1 378.94C1378.34 378.94 1373.18 380.197 1369.63 382.71C1366.08 385.223 1364.3 388.56 1364.3 392.72C1364.3 395.32 1365.38 397.703 1367.55 399.87C1369.72 402.037 1372.88 403.857 1377.04 405.33C1381.2 406.803 1386.31 408.233 1392.38 409.62C1402.09 411.527 1410.67 413.78 1418.12 416.38C1425.57 418.98 1431.47 422.793 1435.8 427.82C1440.13 432.847 1442.3 439.953 1442.3 449.14C1442.47 457.46 1440.35 464.827 1435.93 471.24C1431.51 477.653 1425.31 482.637 1417.34 486.19C1409.37 489.743 1399.83 491.52 1388.74 491.52ZM1497.16 545.6H1465.96V357.36H1493.78L1497.16 376.34C1499.93 372.527 1503.27 368.93 1507.17 365.55C1511.07 362.17 1515.84 359.44 1521.47 357.36C1527.1 355.28 1533.56 354.24 1540.84 354.24C1553.15 354.24 1564.02 357.273 1573.47 363.34C1582.92 369.407 1590.33 377.597 1595.7 387.91C1601.07 398.223 1603.76 409.967 1603.76 423.14C1603.76 436.313 1601.03 448.057 1595.57 458.37C1590.11 468.683 1582.66 476.787 1573.21 482.68C1563.76 488.573 1552.97 491.52 1540.84 491.52C1530.96 491.52 1522.34 489.657 1514.97 485.93C1507.6 482.203 1501.67 476.873 1497.16 469.94V545.6ZM1534.34 464.48C1541.62 464.48 1548.12 462.747 1553.84 459.28C1559.56 455.813 1564.02 450.96 1567.23 444.72C1570.44 438.48 1572.04 431.287 1572.04 423.14C1572.04 414.82 1570.44 407.54 1567.23 401.3C1564.02 395.06 1559.56 390.207 1553.84 386.74C1548.12 383.273 1541.62 381.54 1534.34 381.54C1526.89 381.54 1520.34 383.273 1514.71 386.74C1509.08 390.207 1504.66 395.06 1501.45 401.3C1498.24 407.54 1496.64 414.733 1496.64 422.88C1496.64 431.2 1498.24 438.437 1501.45 444.59C1504.66 450.743 1509.08 455.597 1514.71 459.15C1520.34 462.703 1526.89 464.48 1534.34 464.48ZM1659.92 488.4H1628.72V357.36H1659.92V488.4ZM1644.32 336.56C1638.6 336.56 1633.88 334.783 1630.15 331.23C1626.42 327.677 1624.56 323.3 1624.56 318.1C1624.56 312.727 1626.42 308.35 1630.15 304.97C1633.88 301.59 1638.6 299.9 1644.32 299.9C1650.04 299.9 1654.76 301.59 1658.49 304.97C1662.22 308.35 1664.08 312.727 1664.08 318.1C1664.08 323.3 1662.22 327.677 1658.49 331.23C1654.76 334.783 1650.04 336.56 1644.32 336.56ZM1768.86 488.4H1746.5C1737.66 488.4 1729.99 487.013 1723.49 484.24C1716.99 481.467 1711.92 476.873 1708.28 470.46C1704.64 464.047 1702.82 455.38 1702.82 444.46V383.62H1680.46V357.36H1702.82L1706.46 322.78H1734.02V357.36H1769.64V383.62H1734.02V444.46C1734.02 451.047 1735.45 455.597 1738.31 458.11C1741.17 460.623 1745.98 461.88 1752.74 461.88H1768.86V488.4ZM1853.88 491.52C1840.88 491.52 1829.44 488.703 1819.56 483.07C1809.68 477.437 1801.97 469.507 1796.42 459.28C1790.87 449.053 1788.1 437.267 1788.1 423.92C1788.1 410.053 1790.83 397.92 1796.29 387.52C1801.75 377.12 1809.46 368.973 1819.43 363.08C1829.4 357.187 1840.97 354.24 1854.14 354.24C1866.97 354.24 1878.15 357.1 1887.68 362.82C1897.21 368.54 1904.58 376.21 1909.78 385.83C1914.98 395.45 1917.58 406.24 1917.58 418.2V423.92C1917.58 426 1917.41 428.167 1917.06 430.42H1818.78C1819.3 437.007 1820.86 442.813 1823.46 447.84C1826.41 453.733 1830.52 458.197 1835.81 461.23C1841.1 464.263 1847.03 465.78 1853.62 465.78C1860.9 465.78 1866.92 464.22 1871.69 461.1C1876.46 457.98 1879.97 453.82 1882.22 448.62H1913.94C1911.51 456.767 1907.53 464.09 1901.98 470.59C1896.43 477.09 1889.59 482.203 1881.44 485.93C1873.29 489.657 1864.11 491.52 1853.88 491.52ZM1819.3 410.4H1886.12C1885.77 400.867 1882.57 393.37 1876.5 387.91C1870.43 382.45 1862.89 379.72 1853.88 379.72C1847.47 379.72 1841.57 381.193 1836.2 384.14C1830.83 387.087 1826.58 391.42 1823.46 397.14C1821.38 400.953 1819.99 405.373 1819.3 410.4Z" fill="#FAF7F2"/>
<path d="M2080.08 488.4H2058.24V404.68H1963.86V488.4H1942.02V306.4H1963.86V386.74H2058.24V306.4H2080.08V488.4ZM2169.78 491.52C2157.65 491.52 2146.73 488.703 2137.02 483.07C2127.31 477.437 2119.69 469.463 2114.14 459.15C2108.59 448.837 2105.82 436.833 2105.82 423.14C2105.82 409.1 2108.64 396.923 2114.27 386.61C2119.9 376.297 2127.62 368.323 2137.41 362.69C2147.2 357.057 2158.17 354.24 2170.3 354.24C2182.78 354.24 2193.83 357.057 2203.45 362.69C2213.07 368.323 2220.7 376.297 2226.33 386.61C2231.96 396.923 2234.78 409.013 2234.78 422.88C2234.78 436.747 2231.92 448.837 2226.2 459.15C2220.48 469.463 2212.77 477.437 2203.06 483.07C2193.35 488.703 2182.26 491.52 2169.78 491.52ZM2170.04 472.8C2177.49 472.8 2184.43 470.937 2190.84 467.21C2197.25 463.483 2202.45 457.893 2206.44 450.44C2210.43 442.987 2212.42 433.8 2212.42 422.88C2212.42 411.787 2210.47 402.557 2206.57 395.19C2202.67 387.823 2197.56 382.277 2191.23 378.55C2184.9 374.823 2177.93 372.96 2170.3 372.96C2163.02 372.96 2156.13 374.823 2149.63 378.55C2143.13 382.277 2137.93 387.823 2134.03 395.19C2130.13 402.557 2128.18 411.787 2128.18 422.88C2128.18 433.8 2130.13 442.987 2134.03 450.44C2137.93 457.893 2143.04 463.483 2149.37 467.21C2155.7 470.937 2162.59 472.8 2170.04 472.8ZM2308.36 491.52C2297.44 491.52 2287.95 489.7 2279.89 486.06C2271.83 482.42 2265.42 477.35 2260.65 470.85C2255.88 464.35 2252.98 456.68 2251.94 447.84H2274.3C2275.17 452.347 2276.99 456.507 2279.76 460.32C2282.53 464.133 2286.3 467.21 2291.07 469.55C2295.84 471.89 2301.69 473.06 2308.62 473.06C2314.69 473.06 2319.71 472.15 2323.7 470.33C2327.69 468.51 2330.68 466.04 2332.67 462.92C2334.66 459.8 2335.66 456.42 2335.66 452.78C2335.66 447.407 2334.4 443.333 2331.89 440.56C2329.38 437.787 2325.69 435.577 2320.84 433.93C2315.99 432.283 2310.09 430.853 2303.16 429.64C2297.44 428.6 2291.81 427.213 2286.26 425.48C2280.71 423.747 2275.77 421.45 2271.44 418.59C2267.11 415.73 2263.68 412.22 2261.17 408.06C2258.66 403.9 2257.4 398.787 2257.4 392.72C2257.4 385.267 2259.31 378.637 2263.12 372.83C2266.93 367.023 2272.44 362.473 2279.63 359.18C2286.82 355.887 2295.19 354.24 2304.72 354.24C2318.76 354.24 2330.11 357.62 2338.78 364.38C2347.45 371.14 2352.56 380.933 2354.12 393.76H2332.54C2331.67 387.173 2328.86 382.017 2324.09 378.29C2319.32 374.563 2312.78 372.7 2304.46 372.7C2296.31 372.7 2290.12 374.347 2285.87 377.64C2281.62 380.933 2279.5 385.267 2279.5 390.64C2279.5 394.107 2280.67 397.183 2283.01 399.87C2285.35 402.557 2288.82 404.853 2293.41 406.76C2298 408.667 2303.68 410.227 2310.44 411.44C2319.11 413 2326.99 415.08 2334.1 417.68C2341.21 420.28 2346.97 424.137 2351.39 429.25C2355.81 434.363 2358.02 441.6 2358.02 450.96C2358.02 459.107 2355.98 466.213 2351.91 472.28C2347.84 478.347 2342.07 483.07 2334.62 486.45C2327.17 489.83 2318.41 491.52 2308.36 491.52ZM2454.74 488.4H2434.46C2426.66 488.4 2419.9 487.187 2414.18 484.76C2408.46 482.333 2404.08 478.217 2401.05 472.41C2398.02 466.603 2396.5 458.76 2396.5 448.88V375.82H2373.62V357.36H2396.5L2399.36 325.64H2418.34V357.36H2456.3V375.82H2418.34V448.88C2418.34 457.027 2419.99 462.53 2423.28 465.39C2426.57 468.25 2432.38 469.68 2440.7 469.68H2454.74V488.4ZM2502.32 488.4H2480.48V357.36H2502.32V488.4ZM2491.4 329.54C2487.07 329.54 2483.47 328.11 2480.61 325.25C2477.75 322.39 2476.32 318.793 2476.32 314.46C2476.32 310.127 2477.75 306.617 2480.61 303.93C2483.47 301.243 2487.07 299.9 2491.4 299.9C2495.56 299.9 2499.11 301.243 2502.06 303.93C2505.01 306.617 2506.48 310.127 2506.48 314.46C2506.48 318.793 2505.01 322.39 2502.06 325.25C2499.11 328.11 2495.56 329.54 2491.4 329.54ZM2556.14 488.4H2534.3V357.36H2554.06L2555.1 380.24C2559.26 372.093 2565.2 365.723 2572.91 361.13C2580.62 356.537 2589.42 354.24 2599.3 354.24C2609.53 354.24 2618.37 356.277 2625.82 360.35C2633.27 364.423 2639.08 370.577 2643.24 378.81C2647.4 387.043 2649.48 397.487 2649.48 410.14V488.4H2627.64V412.48C2627.64 399.307 2624.74 389.427 2618.93 382.84C2613.12 376.253 2604.93 372.96 2594.36 372.96C2587.08 372.96 2580.58 374.737 2574.86 378.29C2569.14 381.843 2564.59 386.957 2561.21 393.63C2557.83 400.303 2556.14 408.58 2556.14 418.46V488.4ZM2728.78 548.72C2716.99 548.72 2706.55 547.203 2697.45 544.17C2688.35 541.137 2681.29 536.5 2676.26 530.26C2671.23 524.02 2668.72 516.307 2668.72 507.12C2668.72 503.133 2669.54 498.887 2671.19 494.38C2672.84 489.873 2675.74 485.453 2679.9 481.12C2681.81 478.867 2684.23 476.787 2687.18 474.88C2683.71 473.493 2680.77 471.933 2678.34 470.2C2675.22 468.12 2672.45 465.953 2670.02 463.7V457.72L2692.38 435.62C2688.57 432.327 2685.45 428.513 2683.02 424.18C2679.03 417.247 2677.04 409.447 2677.04 400.78C2677.04 392.113 2679.08 384.313 2683.15 377.38C2687.22 370.447 2693.07 364.857 2700.7 360.61C2708.33 356.363 2717.6 354.24 2728.52 354.24C2736.15 354.24 2742.99 355.28 2749.06 357.36H2796.9V373.74L2772.2 374.78C2772.72 375.647 2773.24 376.513 2773.76 377.38C2777.75 384.313 2779.74 392.113 2779.74 400.78C2779.74 409.447 2777.75 417.29 2773.76 424.31C2769.77 431.33 2763.97 436.92 2756.34 441.08C2748.71 445.24 2739.44 447.32 2728.52 447.32C2721.24 447.32 2714.65 446.367 2708.76 444.46L2695.24 456.42C2695.93 456.94 2696.54 457.373 2697.06 457.72C2698.79 458.933 2701.13 459.973 2704.08 460.84C2707.03 461.707 2711.14 462.487 2716.43 463.18C2721.72 463.873 2728.69 464.567 2737.36 465.26C2749.32 466.127 2758.9 468.207 2766.09 471.5C2773.28 474.793 2778.48 479.213 2781.69 484.76C2784.9 490.307 2786.5 496.893 2786.5 504.52C2786.5 511.973 2784.46 519.037 2780.39 525.71C2776.32 532.383 2770.03 537.887 2761.54 542.22C2753.05 546.553 2742.13 548.72 2728.78 548.72ZM2707.72 480.34C2700.96 483.633 2696.45 487.273 2694.2 491.26C2691.43 496.287 2690.04 500.88 2690.04 505.04C2690.04 510.76 2691.69 515.527 2694.98 519.34C2698.27 523.153 2702.87 526.013 2708.76 527.92C2714.65 529.827 2721.33 530.78 2728.78 530.78C2736.23 530.78 2742.65 529.74 2748.02 527.66C2753.39 525.58 2757.55 522.633 2760.5 518.82C2763.45 515.007 2764.92 510.5 2764.92 505.3C2764.92 499.233 2762.67 494.163 2758.16 490.09C2753.65 486.017 2745.07 483.633 2732.42 482.94C2722.71 482.247 2714.48 481.38 2707.72 480.34ZM2728.52 429.38C2737.88 429.38 2745.25 426.953 2750.62 422.1C2755.99 417.247 2758.68 410.14 2758.68 400.78C2758.68 391.593 2755.99 384.573 2750.62 379.72C2745.25 374.867 2737.88 372.44 2728.52 372.44C2719.33 372.44 2711.92 374.867 2706.29 379.72C2700.66 384.573 2697.84 391.593 2697.84 400.78C2697.84 410.14 2700.61 417.247 2706.16 422.1C2711.71 426.953 2719.16 429.38 2728.52 429.38Z" fill="#EE600A"/>
</svg>
